Coordinates
version=1
nRows=16
nColumns=63
inDegrees=yes

Units are S.I. units (second, meters, Newtons, ...)
If the header above contains a line with 'inDegrees', this indicates whether rotational values are in degrees (yes) or radians (no).

endheader
time	pelvis_tilt	pelvis_list	pelvis_rotation	pelvis_tx	pelvis_ty	pelvis_tz	hip_flexion_r	hip_adduction_r	hip_rotation_r	knee_angle_r	knee_angle_r_beta	ankle_angle_r	subtalar_angle_r	mtp_angle_r	hip_flexion_l	hip_adduction_l	hip_rotation_l	knee_angle_l	knee_angle_l_beta	ankle_angle_l	subtalar_angle_l	mtp_angle_l	L5_S1_Flex_Ext	L5_S1_Lat_Bending	L5_S1_axial_rotation	L4_L5_Flex_Ext	L4_L5_Lat_Bending	L4_L5_axial_rotation	L3_L4_Flex_Ext	L3_L4_Lat_Bending	L3_L4_axial_rotation	L2_L3_Flex_Ext	L2_L3_Lat_Bending	L2_L3_axial_rotation	L1_L2_Flex_Ext	L1_L2_Lat_Bending	L1_L2_axial_rotation	L1_T12_Flex_Ext	L1_T12_Lat_Bending	L1_T12_axial_rotation	Abs_r3	Abs_r2	Abs_r1	Abs_t1	Abs_t2	neck_flexion	neck_bending	neck_rotation	arm_flex_r	arm_add_r	arm_rot_r	elbow_flex_r	pro_sup_r	wrist_flex_r	wrist_dev_r	arm_flex_l	arm_add_l	arm_rot_l	elbow_flex_l	pro_sup_l	wrist_flex_l	wrist_dev_l
2.292683	3.690822	-2.332156	93.889755	0.193755	0.667778	0.905951	5.176250	2.881364	4.183231	4.338742	0.075725	16.810507	-0.382673	0.000000	11.762353	-3.854928	-2.000356	17.290813	0.301782	26.377360	-8.939840	0.000000	-0.050425	0.617671	0.929315	-0.093643	0.821502	0.987397	-0.082843	1.501805	0.987397	-0.057630	1.501805	0.813151	-0.046824	1.259554	0.755069	-0.028813	0.956772	0.696986	-0.360178	6.987215	5.168572	0.000000	0.000000	27.281717	-2.218696	-0.994878	-8.009116	-17.469895	32.375197	24.387468	76.673665	-9.437563	-18.161978	0.684207	-6.779087	141.286976	2.824290	10.341451	-7.218802	-13.681818
2.317073	4.066007	-2.174185	93.884301	0.193372	0.667479	0.906760	4.853929	3.249073	5.370539	3.790336	0.066154	16.426705	-1.457428	0.000000	12.367014	-4.173844	-1.505399	18.598213	0.324600	26.683488	-9.841207	0.000000	-0.077231	0.671168	0.984308	-0.143427	0.892654	1.045827	-0.126884	1.631879	1.045827	-0.088268	1.631879	0.861269	-0.071717	1.368647	0.799750	-0.044130	1.039640	0.738231	-0.551656	7.592391	5.474424	0.000000	0.000000	26.918206	-2.403175	-0.778431	-7.928991	-17.682990	33.014243	24.013729	74.890849	-9.042335	-17.971021	0.489134	-7.025825	132.908615	4.626635	16.751930	-7.736367	-13.212958
2.341463	4.459323	-2.011085	93.953473	0.192994	0.667107	0.907643	4.582673	3.631157	6.383179	3.342598	0.058339	16.081911	-2.504232	0.000000	12.935306	-4.479739	-0.620351	19.807065	0.345699	26.854658	-11.156105	0.000000	-0.105611	0.724987	1.035171	-0.196130	0.964232	1.099870	-0.173508	1.762733	1.099870	-0.120703	1.762733	0.905775	-0.098070	1.478393	0.841077	-0.060346	1.123005	0.776379	-0.754369	8.201195	5.757313	0.000000	0.000000	26.495266	-2.663929	-0.698110	-7.871708	-17.872500	33.518311	23.667723	73.052404	-8.707086	-17.841210	0.241295	-7.332705	123.498363	6.652612	24.070131	-8.407950	-12.525282
2.365854	4.852592	-1.848225	94.089924	0.192649	0.666690	0.908549	4.358351	4.023499	7.219361	2.988866	0.052166	15.763084	-3.528543	0.000000	13.459218	-4.772492	0.327534	20.910483	0.364957	26.951163	-12.447251	0.000000	-0.134725	0.776589	1.077338	-0.250198	1.032863	1.144671	-0.221340	1.888198	1.144671	-0.153977	1.888198	0.942670	-0.125106	1.583620	0.875337	-0.076982	1.202936	0.808003	-0.962328	8.784927	5.991828	0.000000	0.000000	26.035247	-2.985079	-0.742076	-7.789613	-18.065613	34.201193	23.335075	70.961937	-8.545167	-17.825364	-0.052040	-7.691381	113.429410	8.816933	32.022017	-9.302792	-11.686866
2.390244	5.234338	-1.702413	94.311115	0.192324	0.666223	0.909433	4.183514	4.407397	7.915908	2.716168	0.047406	15.458268	-4.593549	0.000000	13.946510	-5.049104	1.268410	21.895589	0.382150	26.987107	-13.576678	0.000000	-0.161949	0.824060	1.104336	-0.300755	1.095999	1.173357	-0.266066	2.003619	1.173357	-0.185091	2.003619	0.966294	-0.150386	1.680422	0.897273	-0.092538	1.276468	0.828252	-1.156785	9.321927	6.141986	0.000000	0.000000	25.595080	-3.342829	-0.903149	-7.746115	-18.218089	34.580149	23.082476	69.213325	-8.430056	-17.800933	-0.403484	-8.105474	102.991184	11.085060	40.381339	-10.474126	-10.799498
2.414634	5.600992	-1.573561	94.580910	0.192086	0.665753	0.910281	4.053808	4.777153	8.396025	2.514703	0.043890	15.179279	-5.526143	0.000000	14.380821	-5.317912	2.107221	22.739178	0.396874	26.967892	-14.497134	0.000000	-0.186390	0.866869	1.121614	-0.346144	1.152936	1.191715	-0.306220	2.107706	1.191715	-0.213025	2.107706	0.981412	-0.173081	1.767720	0.911311	-0.106503	1.342781	0.841211	-1.331363	9.806199	6.238081	0.000000	0.000000	25.183419	-3.726051	-1.144466	-7.741759	-18.325168	34.658369	22.915961	67.846968	-8.398247	-17.754295	-0.785031	-8.551301	92.475212	13.357091	48.956180	-11.762592	-9.862807
2.439024	5.924165	-1.467561	94.879194	0.191962	0.665300	0.911065	3.973744	5.103152	8.595476	2.389078	0.041697	14.982626	-6.163208	0.000000	14.752747	-5.556497	2.750647	23.427170	0.408881	26.913002	-15.092320	0.000000	-0.206691	0.901122	1.130018	-0.383845	1.198492	1.200644	-0.339572	2.190987	1.200644	-0.236227	2.190987	0.988766	-0.191933	1.837567	0.918140	-0.118103	1.395837	0.847514	-1.476372	10.193669	6.284821	0.000000	0.000000	24.827052	-4.091646	-1.467933	-7.740903	-18.408607	34.697766	22.815309	66.662073	-8.430481	-17.723428	-1.175073	-9.048190	82.386321	15.575395	57.357684	-13.134999	-8.958551
2.463415	6.185131	-1.398076	95.203152	0.191983	0.664858	0.911762	3.950169	5.369649	8.597986	2.330233	0.040670	14.847551	-6.606367	0.000000	15.075266	-5.749712	3.212223	23.967181	0.418306	26.820244	-15.370671	0.000000	-0.220541	0.924017	1.123919	-0.409566	1.228942	1.194164	-0.362326	2.246655	1.194164	-0.252056	2.246655	0.983429	-0.204794	1.884255	0.913184	-0.126017	1.431302	0.842939	-1.575299	10.452664	6.250898	0.000000	0.000000	24.537175	-4.425048	-1.837181	-7.756165	-18.441704	34.540683	22.809230	66.001830	-8.530366	-17.650553	-1.618215	-9.583734	72.816458	17.712626	65.438030	-14.490986	-8.118754
2.487805	6.374536	-1.364996	95.546085	0.192149	0.664431	0.912373	3.975312	5.568113	8.467761	2.324533	0.040571	14.763976	-6.921717	0.000000	15.351518	-5.880281	3.601457	24.371482	0.425363	26.673887	-15.495900	0.000000	-0.228040	0.934501	1.103846	-0.423494	1.242886	1.172836	-0.374648	2.272145	1.172836	-0.260627	2.272145	0.965865	-0.211758	1.905634	0.896875	-0.130302	1.447541	0.827885	-1.628870	10.571258	6.139261	0.000000	0.000000	24.314464	-4.694271	-2.221605	-7.787390	-18.421136	34.188865	22.900285	65.909315	-8.706453	-17.542494	-2.100984	-10.148430	64.052429	19.717030	72.931815	-15.797969	-7.366037
2.512195	6.492955	-1.369847	95.872736	0.192507	0.664015	0.912924	4.052821	5.705377	8.254224	2.365063	0.041278	14.753997	-7.108227	0.000000	15.591756	-5.960785	3.869613	24.659791	0.430395	26.521081	-15.447867	0.000000	-0.229596	0.932411	1.078305	-0.426382	1.240107	1.145699	-0.377202	2.267064	1.145699	-0.262405	2.267064	0.943517	-0.213202	1.901373	0.876123	-0.131191	1.444305	0.808729	-1.639978	10.547621	5.997209	0.000000	0.000000	24.164331	-4.888861	-2.616209	-7.840550	-18.333316	33.599763	23.074796	66.365869	-8.911773	-17.403853	-2.612021	-10.717910	56.300663	21.534408	79.594626	-16.997713	-6.725939
2.536585	6.545206	-1.410126	96.188857	0.193014	0.663604	0.913464	4.180056	5.778418	7.854758	2.444937	0.042672	14.865446	-6.993076	0.000000	15.813249	-5.985622	4.082357	24.857447	0.433844	26.372639	-15.325512	0.000000	-0.226715	0.918539	1.046810	-0.421032	1.221656	1.112236	-0.372470	2.233335	1.112236	-0.259112	2.233335	0.915959	-0.210527	1.873084	0.850533	-0.129545	1.422816	0.785108	-1.619401	10.390692	5.822044	0.000000	0.000000	24.092327	-4.995236	-3.007295	-7.897941	-18.184873	32.858930	23.312740	67.233194	-9.127131	-17.243636	-3.118131	-11.262898	49.876178	23.087344	85.106907	-18.022641	-6.181359
2.560976	6.555334	-1.479755	96.470702	0.193652	0.663197	0.914023	4.350222	5.813686	7.378595	2.551682	0.044535	15.058491	-6.701652	0.000000	16.025759	-5.993831	4.154697	24.992059	0.436194	26.275060	-15.027203	0.000000	-0.220885	0.896581	1.013702	-0.410206	1.192453	1.077058	-0.362892	2.179947	1.077058	-0.252450	2.179947	0.886989	-0.205114	1.828308	0.823633	-0.126214	1.388804	0.760276	-1.577761	10.142303	5.637905	0.000000	0.000000	24.097560	-5.017526	-3.376039	-7.957920	-17.987770	31.956648	23.609048	68.510785	-9.337716	-17.047412	-3.590560	-11.734519	44.983682	24.297538	89.171911	-18.813307	-5.778014
2.585366	6.525736	-1.571510	96.711459	0.194376	0.662812	0.914603	4.538219	5.820715	7.144497	2.652196	0.046290	15.222731	-6.692097	0.000000	16.231275	-5.972785	4.192263	25.081697	0.437758	26.187013	-14.730718	0.000000	-0.213023	0.867865	0.979706	-0.395606	1.154261	1.040937	-0.349976	2.110127	1.040937	-0.243464	2.110127	0.857242	-0.197813	1.769751	0.796011	-0.121722	1.344323	0.734779	-1.521604	9.817465	5.448828	0.000000	0.000000	24.155626	-4.970018	-3.709460	-7.987856	-17.762495	31.094710	23.913521	69.871746	-9.498102	-16.859134	-3.986189	-12.099135	41.884233	25.079943	91.526510	-19.354540	-5.600638
2.609756	6.447626	-1.667372	96.869618	0.195219	0.662490	0.915182	4.732945	5.785616	7.000599	2.765287	0.048263	15.417570	-6.680963	0.000000	16.399764	-5.938256	4.081819	25.120299	0.438432	26.152283	-14.296156	0.000000	-0.205807	0.832315	0.954309	-0.382204	1.106979	1.013954	-0.338120	2.023691	1.013954	-0.235216	2.023691	0.835021	-0.191112	1.697257	0.775376	-0.117598	1.289256	0.715732	-1.470057	9.415315	5.307582	0.000000	0.000000	24.235083	-4.837887	-3.992621	-7.999318	-17.485970	30.140321	24.194906	71.519440	-9.635004	-16.636134	-4.268790	-12.330929	40.961679	25.362878	91.869869	-19.551750	-5.659739
2.634146	6.372736	-1.774557	96.969172	0.196015	0.662207	0.915814	4.949754	5.742275	6.781110	2.891770	0.050471	15.633756	-6.497772	0.000000	16.568638	-5.905740	3.975130	25.137623	0.438734	26.147820	-13.934883	0.000000	-0.197379	0.798190	0.932460	-0.366552	1.061592	0.990739	-0.324273	1.940718	0.990739	-0.225584	1.940718	0.815903	-0.183286	1.627668	0.757624	-0.112782	1.236396	0.699345	-1.409855	9.029280	5.186064	0.000000	0.000000	24.330519	-4.660052	-4.242271	-7.963012	-17.263032	29.469846	24.463728	72.903918	-9.695591	-16.422077	-4.407888	-12.370115	42.461796	25.075727	89.962047	-19.438664	-6.083432
2.658537	6.297709	-1.881551	97.026405	0.196735	0.661984	0.916485	5.164970	5.693740	6.623804	3.013818	0.052601	15.813563	-6.362335	0.000000	16.726597	-5.869330	3.878123	25.133602	0.438664	26.178047	-13.622193	0.000000	-0.189091	0.765784	0.912438	-0.351161	1.018492	0.969465	-0.310658	1.861927	0.969465	-0.216112	1.861927	0.798383	-0.175590	1.561586	0.741356	-0.108047	1.186199	0.684328	-1.350659	8.662699	5.074704	0.000000	0.000000	24.429820	-4.436574	-4.470699	-7.895956	-17.081099	28.959284	24.720451	74.194136	-9.687152	-16.152782	-4.371210	-12.197278	46.777942	24.134668	85.542554	-18.974277	-6.878931
